<?xml version="1.0" standalone="no"?>
<!DOCTYPE svg PUBLIC "-//W3C//DTD SVG 20010904//EN"
 "http://www.w3.org/TR/2001/REC-SVG-20010904/DTD/svg10.dtd">
<svg version="1.0" xmlns="http://www.w3.org/2000/svg"
 width="400.000000pt" height="400.000000pt" viewBox="0 0 400.000000 400.000000"
 preserveAspectRatio="xMidYMid meet">
<metadata>
Created by potrace 1.14, written by Peter Selinger 2001-2017
</metadata>
<g transform="translate(0.000000,400.000000) scale(0.100000,-0.100000)"
fill="#000000" stroke="none">
<path d="M2251 2614 c-261 -44 -422 -267 -425 -589 -2 -189 21 -293 90 -406
85 -141 222 -224 390 -236 139 -9 286 31 369 103 l28 24 -39 50 c-36 48 -39
49 -61 35 -13 -8 -33 -22 -46 -30 -92 -59 -258 -70 -357 -24 -103 48 -148 103
-190 229 -35 107 -38 322 -6 445 42 168 164 272 326 280 83 4 177 -23 243 -68
l28 -19 27 33 c15 18 35 39 44 48 16 14 14 17 -29 48 -105 74 -244 102 -392
77z"/>
<path d="M2834 2601 c-2 -2 -4 -32 -4 -66 l0 -61 173 1 c94 0 179 -1 188 -3
13 -3 15 -62 15 -538 l-1 -534 77 0 76 0 0 531 c0 344 4 534 10 538 6 3 84 6
174 5 89 0 168 1 174 3 9 3 12 19 17 103 l2 25 -448 0 c-247 0 -450 -2 -453
-4z"/>
<path d="M296 2412 c-74 -120 -86 -152 -56 -152 5 0 63 -31 129 -70 66 -38
125 -70 131 -70 5 0 10 -4 10 -10 0 -5 4 -10 9 -10 13 0 171 -91 171 -99 0 -6
-31 -25 -305 -186 -82 -48 -154 -92 -159 -96 -10 -9 83 -159 98 -159 5 0 36
17 70 38 34 20 71 42 81 49 274 166 426 268 429 286 3 12 4 50 3 85 -2 67 -11
80 -77 115 -14 8 -134 82 -268 165 l-242 151 -24 -37z"/>
<path d="M937 1736 c-2 -6 -3 -47 -3 -91 l1 -80 375 0 375 0 0 87 c1 72 -1 89
-14 93 -9 2 -177 4 -373 4 -257 -1 -358 -4 -361 -13z"/>
</g>
</svg>
